<svg xmlns="http://www.w3.org/2000/svg" viewBox="0 0 200 200" width="100%" height="100%">
  <defs>
    <linearGradient id="plugGrey" x1="0%" y1="0%" x2="0%" y2="100%">
      <stop offset="0%" stop-color="#cbd5e1"/>
      <stop offset="50%" stop-color="#94a3b8"/>
      <stop offset="100%" stop-color="#64748b"/>
    </linearGradient>
    <linearGradient id="screwMetal" x1="0%" y1="0%" x2="100%" y2="0%">
      <stop offset="0%" stop-color="#f8fafc"/>
      <stop offset="50%" stop-color="#cbd5e1"/>
      <stop offset="100%" stop-color="#475569"/>
    </linearGradient>
    <filter id="plugShadow" x="-10%" y="-10%" width="120%" height="120%">
      <feDropShadow dx="0" dy="3" stdDeviation="3" flood-color="#0f172a" flood-opacity="0.15"/>
    </filter>
  </defs>
  <!-- Nylon Wall Plug (Bucha S6 / S8) -->
  <g transform="translate(30, 30) rotate(30)" filter="url(#plugShadow)">
    <path d="M10 0 L90 0 L100 8 L90 16 L10 16 Z" fill="url(#plugGrey)" stroke="#475569" stroke-width="1.5"/>
    <!-- Collar ring -->
    <rect x="5" y="-3" width="8" height="22" rx="2" fill="#64748b"/>
    <!-- Expansion Fins / Barbs -->
    <polygon points="35,0 45,-6 50,0" fill="#64748b"/>
    <polygon points="35,16 45,22 50,16" fill="#64748b"/>
    <polygon points="65,0 75,-6 80,0" fill="#64748b"/>
    <polygon points="65,16 75,22 80,16" fill="#64748b"/>
  </g>
  <!-- Galvanized Steel Screw (Parafuso Phillips) -->
  <g transform="translate(45, 95) rotate(-15)" filter="url(#plugShadow)">
    <!-- Screw Head -->
    <ellipse cx="15" cy="15" rx="8" ry="14" fill="#64748b" stroke="#334155" stroke-width="1.5"/>
    <line x1="15" y1="5" x2="15" y2="25" stroke="#0f172a" stroke-width="2.5"/>
    <!-- Screw Shank & Thread -->
    <rect x="23" y="9" width="80" height="12" fill="url(#screwMetal)" stroke="#475569" stroke-width="1.2"/>
    <!-- Threads -->
    <line x1="35" y1="8" x2="40" y2="22" stroke="#334155" stroke-width="2"/>
    <line x1="50" y1="8" x2="55" y2="22" stroke="#334155" stroke-width="2"/>
    <line x1="65" y1="8" x2="70" y2="22" stroke="#334155" stroke-width="2"/>
    <line x1="80" y1="8" x2="85" y2="22" stroke="#334155" stroke-width="2"/>
    <polygon points="103,9 118,15 103,21" fill="url(#screwMetal)" stroke="#475569" stroke-width="1.2"/>
  </g>
  <text x="100" y="172" font-family="system-ui, sans-serif" font-size="9" font-weight="800" fill="#475569" text-anchor="middle">Kit Buchas S6/S8 + Parafusos</text>
</svg>